<?xml version="1.0" encoding="utf-8"?>
<!-- Generator: Adobe Illustrator 19.0.0, SVG Export Plug-In . SVG Version: 6.00 Build 0)  -->
<svg version="1.1" id="layer" xmlns="http://www.w3.org/2000/svg" xmlns:xlink="http://www.w3.org/1999/xlink" x="0px" y="0px"
	 viewBox="-153 -46 652 652" style="enable-background:new -153 -46 652 652;" xml:space="preserve">
<style type="text/css">
	.st0{fill:#0D1A2B;}
</style>
<path class="st0" d="M13.7,238.7l8.3,1.6c0.9,0.2,1.5,0.9,1.5,1.8v72.2c0,1-0.8,1.8-1.9,1.8h-8.3c-1,0-1.8-0.8-1.9-1.8v-73.8
	c0-0.5,0.3-1.1,0.7-1.4C12.6,238.7,13.2,238.6,13.7,238.7L13.7,238.7z M84.3,282.8v31.5c0,1-0.8,1.8-1.9,1.8c0,0,0,0,0,0h-8
	c-1,0-1.8-0.8-1.9-1.8v-32.5c0.3-3.2-0.8-6.3-2.9-8.6c-2.2-2.3-5.3-3.6-8.4-3.5c-3.4-0.1-6.7,1.3-9.1,3.8c-2.4,2.5-3.5,5.8-3.3,9.2
	v31.6c0,1-0.8,1.8-1.9,1.8h-8.1c-1,0-1.8-0.8-1.9-1.8c0,0,0,0,0,0v-51.8c0-0.5,0.2-0.9,0.5-1.3c0.3-0.3,0.8-0.5,1.3-0.5h7.9
	c0.5,0,1,0.2,1.3,0.5c0.3,0.3,0.5,0.8,0.5,1.3v5.4c3.5-5.4,9.5-8.7,15.9-8.6C79.2,259.3,84.3,270.7,84.3,282.8L84.3,282.8z
	 M97.8,301.8c0.8-0.6,1.9-0.5,2.6,0.3c3,3.8,7.6,5.9,12.4,5.8c5,0,8.7-2.4,8.7-6.9c0-10.6-27.5-6.8-27.5-26
	c0-9.8,8.5-15.7,19.4-15.7c7-0.3,13.6,3,17.5,8.8c0.5,0.8,0.3,1.9-0.5,2.5c0,0,0,0,0,0l-5.2,3.4c-0.8,0.5-1.9,0.4-2.5-0.4
	c-2.3-3.1-6.1-4.9-10-4.8c-4.3,0-7.6,2.2-7.6,6c0,10.6,27.6,6.2,27.6,25.7c0,10.3-8.9,17-20.5,17c-7.7,0.4-15.1-3.2-19.5-9.6
	c-0.5-0.8-0.3-1.8,0.4-2.4L97.8,301.8z M146,249.5l8,1.6c0.9,0.2,1.5,0.9,1.5,1.8v7.8h9.6c0.5,0,1,0.2,1.3,0.5
	c0.3,0.3,0.5,0.8,0.5,1.3v5.9c0,0.5-0.2,0.9-0.5,1.3c-0.3,0.3-0.8,0.5-1.3,0.5h-9.6V296c0,8.6,3.4,10.5,9.6,10.5c0.3,0,0.7,0,1.1,0
	c0.7,0.1,1.2,0.7,1.2,1.5v6.8c0,0.9-0.7,1.7-1.7,1.8c-1.4,0.1-2.7,0.2-4.1,0.2c-13.8,0-17.9-9-17.9-22.6v-24h-4.4
	c-0.5,0-1-0.2-1.3-0.5c-0.3-0.3-0.5-0.8-0.5-1.3v-5.9c0-1,0.8-1.8,1.8-1.8h4.4v-9.3c0-0.5,0.3-1.1,0.7-1.4
	C144.9,249.6,145.5,249.4,146,249.5L146,249.5z M196,280.7c4.8-0.2,9.6,1.2,13.6,4v-5.2c0-6.4-4.6-10.2-12-10.2
	c-5,0.1-9.8,1.3-14.3,3.5c-0.9,0.4-1.9,0.1-2.4-0.8l-2.8-5c-0.5-0.9-0.2-2,0.7-2.4c0,0,0,0,0,0c6.1-3.5,13-5.4,20-5.4
	c16.8,0,22.5,8.9,22.5,21v34c0,1-0.8,1.8-1.9,1.8c0,0,0,0,0,0h-7c-0.9,0-1.6-0.6-1.8-1.4l-0.6-2.7c-3.8,3.9-9.1,5.9-14.5,5.5
	c-11.9,0-21.4-7.3-21.4-18.5C174.1,288.3,183,280.7,196,280.7L196,280.7z M198,308.2c6.9,0,11.9-3.8,11.9-9.5c0-5.8-4.9-9.5-12-9.5
	c-7.2,0-11.9,4-11.9,9.5C185.9,304.2,190.8,308.2,198,308.2L198,308.2z M234.8,261.1l7.5,1.6c0.9,0.2,1.5,0.9,1.5,1.8v3.5
	c4.4-5.6,11.1-8.8,18.2-8.7c16.1,0,27.6,12.1,27.6,29c0,17.2-10.7,29.2-26.9,29.2c-7.1,0.2-14-3-18.3-8.7v28.5c0,1-0.8,1.8-1.9,1.8
	h-8.1c-1,0-1.8-0.8-1.9-1.8v-74.3c0-0.6,0.3-1.1,0.7-1.4C233.7,261.1,234.3,261,234.8,261.1L234.8,261.1z M260.9,307.1
	c9.9,0,16.8-7.7,16.8-18.9c0-11.4-7.3-18.7-16.9-18.7c-10.4,0-16.8,8.5-16.8,18.7C244,300.3,251.5,307.2,260.9,307.1L260.9,307.1z
	 M318.6,280.7c4.8-0.2,9.6,1.2,13.5,4v-5.2c0-6.4-4.6-10.2-12-10.2c-5,0.1-9.9,1.3-14.3,3.6c-0.9,0.4-1.9,0.1-2.4-0.8l-2.8-5
	c-0.5-0.9-0.2-1.9,0.7-2.4c0,0,0,0,0,0c6.1-3.5,13-5.4,20-5.4c16.8,0,22.5,8.9,22.5,21v34c0,1-0.8,1.8-1.9,1.8h-7
	c-0.9,0-1.6-0.6-1.8-1.4l-0.6-2.7c-3.8,3.9-9.1,5.9-14.5,5.5c-11.9,0-21.4-7.3-21.4-18.5C296.7,288.3,305.6,280.7,318.6,280.7
	L318.6,280.7L318.6,280.7z M320.6,308.2c6.9,0,11.9-3.8,11.9-9.6c0-5.8-4.9-9.5-12-9.5c-7.1,0-11.9,4-11.9,9.5
	S313.4,308.2,320.6,308.2C320.6,308.2,320.6,308.2,320.6,308.2z M363.6,326.6c0.4-0.9,1.5-1.4,2.4-1c0,0,0,0,0.1,0
	c4.7,2.2,9.7,3.3,14.9,3.4c9.4,0,17.8-6,17.8-16.5v-3.7c-4.3,5.6-11,8.8-18.1,8.6c-16.3,0-27.1-12-27.1-29
	c0-17.1,11.3-29.2,27.3-29.2c7.2-0.2,14,3.1,18.4,8.8v-5.2c0-1,0.9-1.8,1.9-1.8c0.1,0,0.2,0,0.3,0l7.5,1.6c0.8,0.2,1.5,0.9,1.5,1.8
	v44.3c0,20.8-12.9,30.3-29.4,30.3c-6.6-0.1-13-1.6-18.9-4.5c-0.9-0.4-1.3-1.4-0.9-2.3L363.6,326.6z M382.2,269.6
	c-9.8,0-16.8,7.6-16.8,18.8c0,11.4,7.3,18.8,16.9,18.8c10.2,0,16.8-7.9,16.8-18.8C399.1,277,391.9,269.6,382.2,269.6
	C382.2,269.6,382.2,269.6,382.2,269.6z M446.3,259.3c17.1,0,27.2,11.6,27.2,29v1.1c0,1-0.9,1.8-1.9,1.8h-40.8
	c0,4.5,1.9,8.8,5.2,11.9c3.3,3.1,7.8,4.7,12.4,4.3c5.5,0.1,10.9-2.2,14.5-6.4c0.6-0.8,1.8-0.9,2.6-0.3l5,3.6c0.8,0.6,1,1.7,0.4,2.5
	c0,0,0,0,0,0c-5.4,7-13.8,11-22.7,10.6c-7.9,0.4-15.5-2.5-21.1-8c-5.6-5.5-8.6-13.1-8.2-20.9C418.8,271.4,430.8,259.3,446.3,259.3
	L446.3,259.3L446.3,259.3z M461.5,283.2c0-3.9-1.6-7.7-4.4-10.3c-2.9-2.7-6.7-4.1-10.6-3.9c-8.1-0.2-14.9,6.2-15.2,14.2H461.5z
	 M-99.5,326.7v-97.5c0-0.9-0.7-1.7-1.6-1.8l-5.9-0.8c-0.5-0.1-1.1,0.1-1.5,0.4c-0.4,0.3-0.6,0.8-0.7,1.4v99.1c0,0.5,0.2,1,0.6,1.4
	c0.4,0.3,0.9,0.5,1.5,0.4l5.9-0.9C-100.2,328.4-99.5,327.6-99.5,326.7z M-116.9,317.5v-79.6c0-0.9-0.7-1.7-1.7-1.8l-5.9-0.6
	c-0.5-0.1-1,0.1-1.4,0.4c-0.4,0.3-0.6,0.8-0.6,1.4v80.9c0,0.5,0.2,1,0.6,1.4c0.4,0.3,0.9,0.5,1.4,0.4l5.9-0.7
	C-117.6,319.2-116.9,318.5-116.9,317.5L-116.9,317.5z M-12.9,230l-76.7-12.3c-0.5-0.1-1.1,0.1-1.5,0.4c-0.4,0.3-0.7,0.8-0.7,1.4v118
	c0,0.5,0.3,1,0.7,1.4c0.4,0.3,1,0.5,1.5,0.4l76.7-13.3c0.9-0.1,1.5-0.9,1.5-1.8v-92.5C-11.4,230.9-12,230.1-12.9,230z M-21.1,315.8
	c0,0.9-0.7,1.7-1.6,1.8l-54.1,7.6c-0.5,0.1-1.1-0.1-1.5-0.4c-0.4-0.3-0.6-0.8-0.6-1.4v-88.6c0-0.5,0.2-1,0.6-1.4
	c0.4-0.3,0.9-0.5,1.4-0.4l54.1,6.6c0.9,0.1,1.6,0.9,1.6,1.8L-21.1,315.8C-21.1,315.8-21.1,315.8-21.1,315.8z"/>
</svg>
